# xmcd
#
# Track frame offsets: 
#        150
#        12382
#        22595
#        33472
#        43083
#        53728
#        62294
#        70477
#        78647
#        86314
#        93841
#        106015
#        116036
#        124491
#        135073
#        143897
#        156016
#        164476
#        170611
#        181929
#        194922
#        207091
#        220184
#        232123
#        248084
#        260678
#        270254
#        279833
#        294445
#        304809
#        321979
#
# Disc length: 4459 seconds
#
# Revision: 2
# Processed by: cddbd v1.5.1PL2 Copyright (c) Steve Scherf et al.
# Submitted via: ExactAudioCopy v0.95b3
#
DISCID=b411691f
DTITLE=Tex Williams and His Western Caravan - 1946-1951
DYEAR=2002
DGENRE=Western Swing
TTITLE0=The Big Print Giveth
TTITLE1=Brother Drop Dead
TTITLE2=Leaf of Love
TTITLE3=Last Go Round
TTITLE4=Close the Door Richard
TTITLE5=Won't You Ride in My Little Red Wagon
TTITLE6=Don't Come Cryin' to Me
TTITLE7=Slam My Door
TTITLE8=Tell Me How Lonely You Can Get
TTITLE9=Steel Guitar Rag
TTITLE10=Smoke, Smoke, Smoke That Cigarette
TTITLE11=New Panhandle Rag
TTITLE12=Irma
TTITLE13=Hot Dingy Dongy
TTITLE14=Minor Boogie
TTITLE15=Who Clipped Samson's Hair
TTITLE16=Western Avenue
TTITLE17=Scale Boogie
TTITLE18=Red Ball Whistle
TTITLE19=Palace Stomp (Shivers)
TTITLE20=Down by the Railroad Tracks
TTITLE21=Texas in My Soul
TTITLE22=No Vacancy
TTITLE23=Cattle Call
TTITLE24=Please Don't Leave Me
TTITLE25=I Let My Wife Support Me
TTITLE26=Columbus Stockade Blues
TTITLE27=What's the Matter with You
TTITLE28=Tho I Tried
TTITLE29=When My Blue Moon Turns to Gold Again
TTITLE30=Roly Poly
EXTD=Subtitle: "Live" from the Palace Barn and Transcription Discs\nCD
EXTD=: Interstate Music Ltd./Country Routes RFD CD 28 (2002-02-26), EA
EXTD=N 0008637902827. 
EXTT0=
EXTT1=
EXTT2=
EXTT3=
EXTT4=
EXTT5=
EXTT6=
EXTT7=
EXTT8=
EXTT9=
EXTT10=
EXTT11=
EXTT12=
EXTT13=
EXTT14=
EXTT15=
EXTT16=
EXTT17=
EXTT18=
EXTT19=
EXTT20=
EXTT21=
EXTT22=
EXTT23=
EXTT24=
EXTT25=
EXTT26=
EXTT27=
EXTT28=
EXTT29=
EXTT30=
PLAYORDER=
